<?xml version="1.0" encoding="UTF-8" standalone="no"?>
<svg
   xmlns:dc="http://purl.org/dc/elements/1.1/"
   xmlns:cc="http://creativecommons.org/ns#"
   xmlns:rdf="http://www.w3.org/1999/02/22-rdf-syntax-ns#"
   xmlns:svg="http://www.w3.org/2000/svg"
   xmlns="http://www.w3.org/2000/svg"
   id="svg8"
   version="1.1"
   viewBox="0 0 36.89579 30.84897"
   height="30.84897mm"
   width="36.89579mm">
  <defs
     id="defs2" />
  <metadata
     id="metadata5">
    <rdf:RDF>
      <cc:Work
         rdf:about="">
        <dc:format>image/svg+xml</dc:format>
        <dc:type
           rdf:resource="http://purl.org/dc/dcmitype/StillImage" />
        <dc:title></dc:title>
      </cc:Work>
    </rdf:RDF>
  </metadata>
  <g
     transform="translate(-27.311291,-44.029365)"
     id="layer1">
    <flowRoot
       transform="scale(0.26458333)"
       style="font-style:normal;font-weight:normal;font-size:40px;line-height:1.25;font-family:sans-serif;letter-spacing:0px;word-spacing:0px;fill:#000000;fill-opacity:1;stroke:none"
       id="flowRoot1376"
       xml:space="preserve"><flowRegion
         id="flowRegion1378"><rect
           y="211.09111"
           x="82.85714"
           height="131.42857"
           width="102.85714"
           id="rect1380" /></flowRegion><flowPara
         id="flowPara1382"></flowPara></flowRoot>    <g
       id="flowRoot1384"
       style="font-style:normal;font-variant:normal;font-weight:bold;font-stretch:normal;font-size:80.00028992px;line-height:1.25;font-family:sans-serif;-inkscape-font-specification:'sans-serif, Bold';font-variant-ligatures:normal;font-variant-caps:normal;font-variant-numeric:normal;font-feature-settings:normal;text-align:start;letter-spacing:0px;word-spacing:0px;writing-mode:lr-tb;text-anchor:start;fill:#136b16;fill-opacity:1;stroke:none"
       transform="matrix(0.30249476,0,0,0.26458333,-3.9207021,0)"
       aria-label="Ta">
      <path
         id="path1443"
         style=""
         d="m 103.24805,166.4102 h 53.75019 v 11.36723 h -19.336 v 46.9533 h -15.03912 v -46.9533 h -19.37507 z" />
      <path
         id="path1445"
         style=""
         d="m 173.44362,205.04315 q -4.37502,0 -6.60159,1.48438 -2.18751,1.48438 -2.18751,4.37502 0,2.65626 1.75782,4.1797 1.79688,1.48438 4.96096,1.48438 3.94532,0 6.64064,-2.81251 2.69533,-2.85157 2.69533,-7.1094 v -1.60157 z m 21.36726,-5.27345 v 24.96103 h -14.10161 v -6.4844 q -2.81251,3.98439 -6.32815,5.82033 -3.51564,1.79688 -8.55472,1.79688 -6.7969,0 -11.05473,-3.94532 -4.21876,-3.98439 -4.21876,-10.31254 0,-7.69534 5.27345,-11.28911 5.31252,-3.59376 16.64069,-3.59376 h 8.24222 v -1.09375 q 0,-3.32033 -2.6172,-4.84377 -2.6172,-1.56251 -8.16409,-1.56251 -4.49221,0 -8.35941,0.89844 -3.8672,0.89845 -7.18752,2.69533 v -10.6641 q 4.4922,-1.09376 9.02347,-1.64063 4.53126,-0.58594 9.06253,-0.58594 11.83598,0 17.07037,4.68751 5.27346,4.64846 5.27346,15.15631 z" />
    </g>
    <g
       id="flowRoot1392"
       style="font-style:normal;font-variant:normal;font-weight:bold;font-stretch:normal;font-size:80px;line-height:1.25;font-family:sans-serif;-inkscape-font-specification:'sans-serif, Bold';font-variant-ligatures:normal;font-variant-caps:normal;font-variant-numeric:normal;font-feature-settings:normal;text-align:start;letter-spacing:0px;word-spacing:0px;writing-mode:lr-tb;text-anchor:start;fill:#008000;fill-opacity:1;stroke:none"
       transform="matrix(0.26458333,0,0,0.26458333,-1.5119048,-92.226191)"
       aria-label="Da">
      <path
         id="path1438"
         style=""
         d="m 156.66797,583.49023 v 35.58594 h 5.39062 q 9.21875,0 14.0625,-4.57031 4.88282,-4.57031 4.88282,-13.28125 0,-8.67188 -4.84375,-13.20313 -4.84375,-4.53125 -14.10157,-4.53125 z m -15.03906,-11.36718 h 15.85937 q 13.28125,0 19.76563,1.91406 6.52343,1.875 11.17187,6.40625 4.10156,3.94531 6.09375,9.10156 1.99219,5.15625 1.99219,11.67969 0,6.60156 -1.99219,11.79687 -1.99219,5.15625 -6.09375,9.10157 -4.6875,4.53125 -11.25,6.44531 -6.5625,1.875 -19.6875,1.875 h -15.85937 z" />
      <path
         id="path1440"
         style=""
         d="m 227.01953,610.75586 q -4.375,0 -6.60156,1.48437 -2.1875,1.48438 -2.1875,4.375 0,2.65625 1.75781,4.17969 1.79688,1.48438 4.96094,1.48438 3.94531,0 6.64062,-2.8125 2.69532,-2.85157 2.69532,-7.10938 v -1.60156 z m 21.36719,-5.27344 v 24.96094 h -14.10156 v -6.48438 q -2.8125,3.98438 -6.32813,5.82032 -3.51562,1.79687 -8.55469,1.79687 -6.79687,0 -11.05468,-3.94531 -4.21875,-3.98438 -4.21875,-10.3125 0,-7.69531 5.27343,-11.28906 5.3125,-3.59375 16.64063,-3.59375 h 8.24219 v -1.09375 q 0,-3.32032 -2.61719,-4.84375 -2.61719,-1.5625 -8.16406,-1.5625 -4.49219,0 -8.35938,0.89843 -3.86719,0.89844 -7.1875,2.69532 v -10.66407 q 4.49219,-1.09375 9.02344,-1.64062 4.53125,-0.58594 9.0625,-0.58594 11.83594,0 17.07031,4.6875 5.27344,4.64844 5.27344,15.15625 z" />
    </g>
  </g>
</svg>
